<svg id="emhAjFWwaGo1" xmlns="http://www.w3.org/2000/svg" xmlns:xlink="http://www.w3.org/1999/xlink" viewBox="0 0 512 512" shape-rendering="geometricPrecision" text-rendering="geometricPrecision"><g transform="translate(1.719059 0)"><g transform="matrix(1.209748 0 0 1.209747-1.718966 1.85185)"><path d="M266.666667,128C331.468077,128,384,180.531923,384,245.333333c0,24.693186-7.627964,47.604765-20.656081,66.506928l59.884556,59.884992-30.169889,30.169889-59.884992-59.884557c-18.902163,13.028118-41.813742,20.656082-66.506927,20.656082-64.801411,0-117.333334-52.531923-117.333334-117.333334s52.531923-117.333333,117.333334-117.333333Zm0,42.666667C225.429405,170.666667,192,204.096072,192,245.333333s33.429405,74.666667,74.666667,74.666667s74.666666-33.429405,74.666666-74.666667-33.429405-74.666666-74.666666-74.666666ZM128.404239,234.665576c-.26786,3.5208-.404239,7.078352-.404239,10.667757c0,11.014287,1.284152,21.728643,3.710904,32.001518L0,277.333333v-42.666666l128.404239-.001091ZM85.333333,0v213.333333h-64L21.333333,0h64Zm85.333334,85.333333l-.00272,59.94015c-18.930213,18.167331-32.715709,41.654591-38.953043,68.058332l-25.044237.001518v-128h64ZM256,42.666667l-.000404,64.404187c-23.445281,1.783582-45.260868,9.397436-64.000144,21.394945L192,42.666667h64ZM341.333333,64l.00065,64.465865c-18.739115-11.99743-40.554496-19.611277-63.999559-21.394959L277.333333,64h64Z" fill-rule="evenodd"/></g></g></svg>
