<svg id="eVjnPUTkQfc1" xmlns="http://www.w3.org/2000/svg" xmlns:xlink="http://www.w3.org/1999/xlink" viewBox="0 0 1424 1240" shape-rendering="geometricPrecision" text-rendering="geometricPrecision"><g transform="matrix(.924202 0 0 0.905762-1351.461191-648.966991)"><path d="M2231.5,1315.5v636.19" fill="none" fill-rule="evenodd" stroke="#000" stroke-width="135.208" stroke-linecap="round" stroke-miterlimit="8"/><path d="M2417.37,1499.66l-188.14-187.81-184.57,184.89" fill="none" fill-rule="evenodd" stroke="#000" stroke-width="135.208" stroke-linecap="round" stroke-miterlimit="8"/><path d="M239.93,480C107.106,479.686,-0.31393,371.98,0.000731,239.432s108.245269-239.745181,241.069269-239.431174c2.816.006657,5.631.062657,8.445.167974" transform="matrix(1 0 0-1 1548 1718)" fill="none" fill-rule="evenodd" stroke="#000" stroke-width="75.625" stroke-linecap="round" stroke-linejoin="round" stroke-miterlimit="10"/><path d="M111.782,415.703C6.7954,356.144,-30.9692,221.066,27.4322,113.998C38.2839,94.1033,52.0738,76.0308,68.3174,60.415" transform="matrix(.609716 0.79262 0.79262-.609716 1701.04 1222.92)" fill="none" fill-rule="evenodd" stroke="#000" stroke-width="75.625" stroke-linecap="round" stroke-linejoin="round" stroke-miterlimit="10"/><path d="M464.978,634.069c-167.416,73.787-362.983-2.037-436.8113-169.357-73.8285-167.32,2.0386-362.775,169.4543-436.5615c19.929-8.7837,40.677-15.5817,61.941-20.29533" transform="matrix(-.051606 0.998668 0.998668 0.051606 2103.8 801.952)" fill="none" fill-rule="evenodd" stroke="#000" stroke-width="75.625" stroke-linecap="round" stroke-linejoin="round" stroke-miterlimit="10"/><path d="M188.641,421.552C84.1815,421.244,-0.275518,326.627,0.000829,210.219C0.277176,93.8105,85.1823,-0.3074,189.642,0.000557c5.213.015369,10.423.270896,15.617.765926" transform="matrix(-.993962-.109728-.109728 0.993962 2917.39 1322.36)" fill="none" fill-rule="evenodd" stroke="#000" stroke-width="75.625" stroke-linecap="round" stroke-linejoin="round" stroke-miterlimit="10"/><path d="M0,0l314.047.000361" transform="matrix(-1 0 0 1 2684.05 1721)" fill="none" fill-rule="evenodd" stroke="#000" stroke-width="75.625" stroke-linecap="round" stroke-linejoin="round" stroke-miterlimit="10"/><path d="M1798,1718h293.17" fill="none" fill-rule="evenodd" stroke="#000" stroke-width="75.625" stroke-linecap="round" stroke-linejoin="round" stroke-miterlimit="10"/></g></svg>
